<svg xmlns="http://www.w3.org/2000/svg" width="900" height="520" viewBox="0 0 900 520">
<rect width="100%" height="100%" fill="#ffffff"/>
<text x="90" y="42" font-family="Arial" font-size="28" font-weight="700" fill="#111827">Average Runs by Match Phase</text>
<line x1="90" y1="440" x2="850" y2="440" stroke="#374151" stroke-width="1.5"/>
<line x1="90" y1="90" x2="90" y2="440" stroke="#374151" stroke-width="1.5"/>
<line x1="90" y1="440.0" x2="850" y2="440.0" stroke="#e5e7eb"/>
<text x="78" y="445.0" text-anchor="end" font-family="Arial" font-size="13" fill="#4b5563">0</text>
<line x1="90" y1="362.0" x2="850" y2="362.0" stroke="#e5e7eb"/>
<text x="78" y="367.0" text-anchor="end" font-family="Arial" font-size="13" fill="#4b5563">18</text>
<line x1="90" y1="284.0" x2="850" y2="284.0" stroke="#e5e7eb"/>
<text x="78" y="289.0" text-anchor="end" font-family="Arial" font-size="13" fill="#4b5563">37</text>
<line x1="90" y1="206.0" x2="850" y2="206.0" stroke="#e5e7eb"/>
<text x="78" y="211.0" text-anchor="end" font-family="Arial" font-size="13" fill="#4b5563">55</text>
<line x1="90" y1="128.0" x2="850" y2="128.0" stroke="#e5e7eb"/>
<text x="78" y="133.0" text-anchor="end" font-family="Arial" font-size="13" fill="#4b5563">73</text>
<line x1="90" y1="50.0" x2="850" y2="50.0" stroke="#e5e7eb"/>
<text x="78" y="55.0" text-anchor="end" font-family="Arial" font-size="13" fill="#4b5563">91</text>
<rect x="140.7" y="192.0" width="70.0" height="248.0" rx="4" fill="#2563eb"/>
<text x="175.7" y="184.0" text-anchor="middle" font-family="Arial" font-size="14" font-weight="700" fill="#111827">58.1</text>
<rect x="222.7" y="220.3" width="70.0" height="219.7" rx="4" fill="#f97316"/>
<text x="257.7" y="212.3" text-anchor="middle" font-family="Arial" font-size="14" font-weight="700" fill="#111827">51.5</text>
<text x="216.7" y="482" text-anchor="middle" font-family="Arial" font-size="15" fill="#111827">Powerplay</text>
<rect x="394.0" y="50.0" width="70.0" height="390.0" rx="4" fill="#2563eb"/>
<text x="429.0" y="42.0" text-anchor="middle" font-family="Arial" font-size="14" font-weight="700" fill="#111827">91.4</text>
<rect x="476.0" y="88.2" width="70.0" height="351.8" rx="4" fill="#f97316"/>
<text x="511.0" y="80.2" text-anchor="middle" font-family="Arial" font-size="14" font-weight="700" fill="#111827">82.5</text>
<text x="470.0" y="482" text-anchor="middle" font-family="Arial" font-size="15" fill="#111827">Middle overs</text>
<rect x="647.3" y="262.2" width="70.0" height="177.8" rx="4" fill="#2563eb"/>
<text x="682.3" y="254.2" text-anchor="middle" font-family="Arial" font-size="14" font-weight="700" fill="#111827">41.7</text>
<rect x="729.3" y="279.6" width="70.0" height="160.4" rx="4" fill="#f97316"/>
<text x="764.3" y="271.6" text-anchor="middle" font-family="Arial" font-size="14" font-weight="700" fill="#111827">37.6</text>
<text x="723.3" y="482" text-anchor="middle" font-family="Arial" font-size="15" fill="#111827">Death overs</text>
<rect x="90" y="62" width="16" height="16" fill="#2563eb"/>
<text x="114" y="75" font-family="Arial" font-size="14" fill="#111827">Winning teams</text>
<rect x="245" y="62" width="16" height="16" fill="#f97316"/>
<text x="269" y="75" font-family="Arial" font-size="14" fill="#111827">Losing teams</text>
</svg>