<svg xmlns="http://www.w3.org/2000/svg" width="900" height="520" viewBox="0 0 900 520">
<rect width="100%" height="100%" fill="#ffffff"/>
<text x="90" y="42" font-family="Arial" font-size="28" font-weight="700" fill="#111827">Win Rate: Toss Winners vs Toss Losers</text>
<line x1="90" y1="440" x2="850" y2="440" stroke="#374151" stroke-width="1.5"/>
<line x1="90" y1="90" x2="90" y2="440" stroke="#374151" stroke-width="1.5"/>
<line x1="90" y1="440.0" x2="850" y2="440.0" stroke="#e5e7eb"/>
<text x="78" y="445.0" text-anchor="end" font-family="Arial" font-size="13" fill="#4b5563">0%</text>
<line x1="90" y1="362.0" x2="850" y2="362.0" stroke="#e5e7eb"/>
<text x="78" y="367.0" text-anchor="end" font-family="Arial" font-size="13" fill="#4b5563">10%</text>
<line x1="90" y1="284.0" x2="850" y2="284.0" stroke="#e5e7eb"/>
<text x="78" y="289.0" text-anchor="end" font-family="Arial" font-size="13" fill="#4b5563">20%</text>
<line x1="90" y1="206.0" x2="850" y2="206.0" stroke="#e5e7eb"/>
<text x="78" y="211.0" text-anchor="end" font-family="Arial" font-size="13" fill="#4b5563">30%</text>
<line x1="90" y1="128.0" x2="850" y2="128.0" stroke="#e5e7eb"/>
<text x="78" y="133.0" text-anchor="end" font-family="Arial" font-size="13" fill="#4b5563">40%</text>
<line x1="90" y1="50.0" x2="850" y2="50.0" stroke="#e5e7eb"/>
<text x="78" y="55.0" text-anchor="end" font-family="Arial" font-size="13" fill="#4b5563">51%</text>
<rect x="245.0" y="50.0" width="70.0" height="390.0" rx="4" fill="#2563eb"/>
<text x="280.0" y="42.0" text-anchor="middle" font-family="Arial" font-size="14" font-weight="700" fill="#111827">50.6%</text>
<text x="280.0" y="482" text-anchor="middle" font-family="Arial" font-size="15" fill="#111827">Toss winners</text>
<rect x="625.0" y="58.7" width="70.0" height="381.3" rx="4" fill="#2563eb"/>
<text x="660.0" y="50.7" text-anchor="middle" font-family="Arial" font-size="14" font-weight="700" fill="#111827">49.4%</text>
<text x="660.0" y="482" text-anchor="middle" font-family="Arial" font-size="15" fill="#111827">Toss losers</text>
<rect x="90" y="62" width="16" height="16" fill="#2563eb"/>
<text x="114" y="75" font-family="Arial" font-size="14" fill="#111827">Win rate</text>
</svg>